<svg width="221" height="103" viewBox="0 0 221 103" fill="none" xmlns="http://www.w3.org/2000/svg">
<g clip-path="url(#clip0_8768_600)">
<path d="M159.76 10.2285C159.743 9.27794 159.542 8.33656 159.089 7.50805C158.853 7.08957 158.557 6.6972 158.182 6.47069C155.208 4.65703 149.497 1.48274 147.396 0.314076C146.751 -0.0345275 145.974 -0.122062 145.32 0.200434H145.312C131.63 6.9145 118.603 13.3061 104.904 20.0209C96.2975 24.2326 87.6907 28.4266 79.0839 32.6298C73.5907 35.3157 68.1052 38.0009 62.6036 40.6691C60.7554 41.5675 59.9883 43.0149 60.0052 45.0466C60.1096 53.0599 59.9706 76.3856 60.0052 79.9868C60.0136 80.5358 60.4498 81.2776 60.912 81.5824C64.1209 83.9105 68.202 87.3896 70.7128 88.1575L70.6514 101.813C70.7827 102.118 71.2273 102.118 71.3578 101.813L88.9892 80.5973C103.22 74.0053 122.255 65.076 129.022 61.7972C138.588 57.1495 148.144 52.4932 157.719 47.8539C159.026 47.2173 159.844 45.2685 159.925 43.9471C160.156 40.1647 159.768 10.0358 159.759 10.2278L159.76 10.2285ZM145.739 35.3679C145.739 37.1032 144.754 38.6988 143.185 39.4659L64.5831 77.9121C62.3249 79.0024 62.0546 78.3306 62.0983 76.2382L62.0108 45.5273C62.0108 43.7743 62.5598 42.8237 64.2606 41.9169L144.623 2.87792C145.146 2.61609 145.739 2.85182 145.739 3.43615V35.3679Z" fill="white"/>
<path d="M84.5207 41.7556C85.0935 41.4692 85.5173 41.2703 85.7907 41.1559C86.064 41.0407 86.4034 40.9547 86.8112 40.8971C87.2173 40.8395 87.5613 40.8918 87.8408 41.0553C88.7615 41.5659 89.2214 42.5457 89.2214 43.9916V55.5961L85.4413 57.4796V56.6549C84.7349 57.571 83.7613 58.3373 82.5212 58.9562L69.9016 65.2441C69.3411 65.5236 68.928 65.7186 68.6615 65.83C68.3943 65.9405 68.0611 66.0242 67.661 66.0787C67.261 66.1333 66.9208 66.0787 66.6421 65.9144C65.7214 65.4176 65.2615 64.454 65.2615 63.0235V61.8517C65.2615 60.4773 65.7145 59.0583 66.6213 57.5948C66.9016 57.151 67.241 56.7578 67.6418 56.4138C68.0419 56.0706 68.3851 55.8157 68.6715 55.6506C68.9587 55.487 69.3679 55.2713 69.9024 55.0048L84.8624 47.5513V46.1845C84.8624 46.0686 84.8255 45.9941 84.7525 45.958C84.6788 45.9219 84.5959 45.9273 84.5022 45.9734L70.383 53.0092C70.2893 53.0568 70.2057 53.1336 70.1327 53.2426C70.059 53.3516 70.0221 53.4637 70.0221 53.5797V54.1863L65.6423 56.3685V55.7404C65.6423 54.323 66.1092 52.8756 67.0421 51.3982C67.3224 50.9544 67.6687 50.559 68.0818 50.2081C68.4957 49.8579 68.835 49.6084 69.1023 49.461C69.3687 49.3135 69.7818 49.1001 70.3423 48.8213L84.523 41.7548L84.5207 41.7556ZM83.3005 54.3376C83.7275 54.1249 84.093 53.7786 84.4009 53.301C84.7072 52.8234 84.8608 52.3534 84.8608 51.8897V51.7591L69.9807 59.1735C69.8732 59.2265 69.7864 59.3094 69.7211 59.4223C69.6536 59.5351 69.6206 59.6419 69.6206 59.744V60.7621C69.6206 61.0225 69.7403 61.0923 69.9807 60.9733L83.3005 54.336V54.3376Z" fill="white"/>
<path d="M110.28 28.9203C110.853 28.6347 111.277 28.435 111.55 28.3206C111.824 28.2054 112.163 28.1194 112.571 28.0618C112.977 28.005 113.321 28.0565 113.601 28.2208C114.521 28.7306 114.981 29.7104 114.981 31.1563V42.7623L111.201 44.6458V43.8204C110.495 44.7364 109.521 45.5035 108.281 46.1224L95.6613 52.4103C95.1008 52.6898 94.6877 52.8841 94.4205 52.9962C94.1541 53.1068 93.8208 53.1905 93.4208 53.245C93.0207 53.2995 92.6806 53.245 92.4018 53.0799C91.4812 52.5846 91.0212 51.6202 91.0212 50.1889V49.0172C91.0212 47.6435 91.4743 46.2253 92.3803 44.7602C92.6614 44.3164 93.0008 43.9233 93.4016 43.5793C93.8016 43.2361 94.1448 42.9811 94.4313 42.8168C94.7184 42.6525 95.1277 42.4367 95.6621 42.1711L110.622 34.7168V33.35C110.622 33.2341 110.585 33.158 110.512 33.1227C110.439 33.0866 110.355 33.0935 110.262 33.1396L96.1428 40.1754C96.0483 40.2215 95.9654 40.299 95.8925 40.4081C95.8188 40.5179 95.7819 40.6284 95.7819 40.7444V41.3525L91.4021 43.534V42.9059C91.4021 41.4884 91.8689 40.041 92.8019 38.5645C93.0821 38.1199 93.4284 37.7229 93.8415 37.372C94.2547 37.0226 94.5948 36.7731 94.862 36.6264C95.1285 36.479 95.5416 36.2655 96.1021 35.986L110.283 28.9211L110.28 28.9203ZM109.06 41.5023C109.487 41.2903 109.853 40.9448 110.161 40.4657C110.467 39.9881 110.621 39.5181 110.621 39.0544V38.9238L95.7404 46.3382C95.6329 46.3919 95.5462 46.4741 95.4801 46.587C95.4133 46.6998 95.3803 46.8073 95.3803 46.9079V47.9284C95.3803 48.1887 95.5001 48.2586 95.7404 48.1388L109.06 41.5015V41.5023Z" fill="white"/>
<path d="M136.04 16.0849C136.614 15.7993 137.038 15.5997 137.311 15.4852C137.584 15.3701 137.924 15.2841 138.331 15.2265C138.738 15.1689 139.082 15.2211 139.361 15.3847C140.282 15.8953 140.742 16.8751 140.742 18.3209V29.9269L136.962 31.8105V30.985C136.255 31.9011 135.282 32.6682 134.041 33.2863L121.422 39.575C120.861 39.8537 120.448 40.0495 120.181 40.1601C119.915 40.2706 119.581 40.3543 119.181 40.4088C118.781 40.4634 118.441 40.4088 118.161 40.2445C117.241 39.7477 116.781 38.7848 116.781 37.3536V36.1818C116.781 34.8082 117.234 33.3884 118.14 31.9257C118.421 31.4811 118.761 31.0879 119.161 30.7439C119.561 30.4007 119.904 30.1458 120.191 29.9807C120.478 29.8171 120.887 29.6014 121.422 29.3357L136.382 21.8822V20.5147C136.382 20.3987 136.345 20.3242 136.272 20.2881C136.198 20.2521 136.115 20.2574 136.022 20.3043L121.902 27.3401C121.808 27.3869 121.725 27.4637 121.652 27.5727C121.579 27.6818 121.542 27.7939 121.542 27.9098V28.5172L117.162 30.6994V30.0713C117.162 28.6523 117.629 27.2065 118.561 25.7284C118.842 25.2853 119.188 24.8891 119.601 24.5382C120.014 24.188 120.355 23.9385 120.622 23.7911C120.889 23.6436 121.301 23.4309 121.862 23.1514L136.042 16.0849H136.04ZM134.819 28.6669C135.247 28.4542 135.613 28.1094 135.92 27.6303C136.227 27.1527 136.38 26.6828 136.38 26.219V26.0892L121.5 33.5028C121.393 33.5558 121.306 33.6387 121.24 33.7516C121.173 33.866 121.14 33.9712 121.14 34.0733V35.0915C121.14 35.3518 121.26 35.4217 121.5 35.3027L134.819 28.6654V28.6669Z" fill="white"/>
</g>
<defs>
<clipPath id="clip0_8768_600">
<rect width="100" height="102.042" fill="white" transform="translate(60)"/>
</clipPath>
</defs>
</svg>
