<svg width="221" height="102" viewBox="0 0 221 102" fill="none" xmlns="http://www.w3.org/2000/svg">
<g clip-path="url(#clip0_8768_599)">
<path d="M81.7 44C81.7 43.2 82 42.5 82.5 42C83 41.5 83.7 41.3 84.6 41.3C85.5 41.3 86.2 41.5 86.8 42C87.3 42.5 87.6 43.2 87.6 44C87.6 44.8 87.3 45.5 86.8 46C86.3 46.5 85.5 46.8 84.6 46.8C83.7 46.8 83 46.5 82.5 46C82 45.5 81.7 44.9 81.7 44ZM81.7 57.1C81.7 56.3 82 55.6 82.5 55.1C83 54.6 83.7 54.4 84.6 54.4C85.5 54.4 86.2 54.6 86.8 55.1C87.3 55.6 87.6 56.3 87.6 57.1C87.6 57.9 87.3 58.6 86.8 59.1C86.3 59.6 85.5 59.9 84.6 59.9C83.7 59.9 83 59.6 82.5 59.1C82 58.6 81.7 58 81.7 57.1Z" fill="white"/>
<path d="M18.9001 45.8V55.7H21.8001V59.7H14.6001V58.5C13.1001 59.6 11.3001 60.2 9.1001 60.2C6.6001 60.2 4.4001 59.3 2.7001 57.5C0.900098 55.7 0.100098 53.5 0.100098 50.9C0.100098 48.3 1.0001 46.1 2.7001 44.2C4.4001 42.3 6.6001 41.5 9.1001 41.5C11.2001 41.5 13.0001 42.1 14.6001 43.2V42H21.8001V46H18.9001V45.8ZM9.7001 56.4C11.5001 56.4 13.1001 55.7 14.5001 54.3V47.3C13.1001 45.9 11.5001 45.2 9.7001 45.2C8.2001 45.2 6.9001 45.7 5.9001 46.8C4.9001 47.9 4.4001 49.2 4.4001 50.8C4.4001 52.3 4.9001 53.6 5.9001 54.7C6.9001 55.8 8.2001 56.4 9.7001 56.4Z" fill="white"/>
<path d="M34.2001 55.6999V59.6999H24.1001V55.6999H27.0001V36.8999H24.2001V32.8999H31.4001V55.7999H34.2001V55.6999Z" fill="white"/>
<path d="M45.0999 41.8H51.9V45.8H45.0999V55.7H49.5V59.7H37.7999V55.7H40.7V45.8H35.7V41.8H40.7V38.8C40.7 36.4 41.4 34.5 42.7 33.1C44 31.7 45.8 31 48 31C49.3 31 50.6999 31.2 52.0999 31.6L51.5 35.2C50.4 35 49.4999 34.9 48.7999 34.9C47.6999 34.9 46.7999 35.3 46.0999 36C45.3999 36.7 45.0999 37.7 45.0999 39V41.8Z" fill="white"/>
<path d="M72.1 45.8V55.7H75V59.7H67.8001V58.5C66.3001 59.6 64.5 60.2 62.3 60.2C59.8 60.2 57.6001 59.3 55.9001 57.5C54.1001 55.7 53.3 53.5 53.3 50.9C53.3 48.3 54.2001 46.1 55.9001 44.2C57.7001 42.4 59.8 41.5 62.3 41.5C64.4 41.5 66.2001 42.1 67.8001 43.2V42H75V46H72.1V45.8ZM62.9001 56.4C64.7001 56.4 66.3 55.7 67.7 54.3V47.3C66.3 45.9 64.7001 45.2 62.9001 45.2C61.4001 45.2 60.1 45.7 59.1 46.8C58.1 47.9 57.6 49.2 57.6 50.8C57.6 52.3 58.1 53.6 59.1 54.7C60.2 55.8 61.4001 56.4 62.9001 56.4Z" fill="white"/>
<path d="M102.3 48.5L105.9 49.1C107.5 49.4 108.9 50 110 50.9C111.1 51.8 111.6 53.1 111.6 54.7C111.6 56.4 111 57.8 109.8 58.8C108.6 59.8 106.9 60.3 104.7 60.3C102.2 60.3 100 59.6 98.3 58.1V59.7001H94.3V53.5H98.3C99.3 54.6 100.2 55.4 101 56C101.9 56.6 102.9 56.8 104.2 56.8C106.2 56.8 107.2 56.2 107.2 54.9C107.2 53.8 106.4 53.2 104.9 52.9L101.6 52.4C97.2 51.6 95 49.7 95 46.8C95 45.1 95.7 43.7 97 42.7C98.3 41.7 100.1 41.3 102.3 41.3C104.4 41.3 106 41.9 107.2 43V41.8H111.1V47.3H107.2C106.3 46.3 105.6 45.7 104.9 45.2C104.2 44.8 103.4 44.6 102.4 44.6C101.5 44.6 100.8 44.8 100.3 45.1C99.8 45.5 99.6 45.9 99.6 46.4C99.6 47.5 100.5 48.2 102.3 48.5Z" fill="white"/>
<path d="M132.7 50.4999C132.7 51.3999 132.7 52.0999 132.6 52.4999H118.8C119.1 53.6999 119.7 54.5999 120.6 55.3999C121.5 56.0999 122.7 56.4999 124.1 56.4999C125.9 56.4999 127.1 55.8999 127.7 54.7999H132.4C131.9 56.4999 130.9 57.7999 129.3 58.7999C127.8 59.7999 126 60.2999 123.9 60.2999C121.1 60.2999 118.8 59.3999 117 57.5999C115.2 55.7999 114.3 53.4999 114.3 50.7999C114.3 48.0999 115.2 45.8999 117 44.0999C118.8 42.2999 121 41.3999 123.7 41.3999C126.3 41.3999 128.5 42.1999 130.1 43.8999C131.9 45.5999 132.7 47.7999 132.7 50.4999ZM123.9 44.8999C122.6 44.8999 121.5 45.2999 120.6 46.0999C119.7 46.8999 119.1 47.8999 118.8 49.0999H128.5C128.3 47.7999 127.8 46.7999 127 46.0999C126.2 45.1999 125.1 44.8999 123.9 44.8999Z" fill="white"/>
<path d="M154.1 45.8V55.7H157V59.7H149.8V58.5C148.3 59.6 146.5 60.2 144.3 60.2C141.8 60.2 139.6 59.3 137.9 57.5C136.1 55.7 135.3 53.5 135.3 50.9C135.3 48.3 136.2 46.1 137.9 44.2C139.7 42.4 141.8 41.5 144.3 41.5C146.4 41.5 148.2 42.1 149.8 43.2V42H157V46H154.1V45.8ZM145 56.4C146.8 56.4 148.4 55.7 149.8 54.3V47.3C148.4 45.9 146.8 45.2 145 45.2C143.5 45.2 142.2 45.7 141.2 46.8C140.2 47.9 139.7 49.2 139.7 50.8C139.7 52.3 140.2 53.6 141.2 54.7C142.2 55.8 143.4 56.4 145 56.4Z" fill="white"/>
<path d="M174.8 41.5V46C172.1 46.1 169.6 46.5 167.5 47.3V55.7H171.9V59.7H160.2V55.7H163V45.8H160.2V41.8H167.4V43.7C169.5 42.3 172 41.5 174.8 41.5Z" fill="white"/>
<path d="M190.5 52.9999H195C194.7 55.0999 193.8 56.8999 192.2 58.1999C190.6 59.4999 188.6 60.1999 186.2 60.1999C183.3 60.1999 181 59.2999 179.1 57.4999C177.2 55.6999 176.3 53.4999 176.3 50.7999C176.3 48.0999 177.2 45.8999 179 44.0999C180.8 42.2999 183.1 41.3999 185.8 41.3999C187.8 41.3999 189.5 41.9999 190.8 43.0999V41.7999H194.9V48.4999H190.7C190.4 47.4999 189.9 46.7999 189.1 46.1999C188.3 45.5999 187.3 45.2999 186.2 45.2999C184.7 45.2999 183.4 45.7999 182.3 46.8999C181.2 47.8999 180.7 49.1999 180.7 50.6999C180.7 52.1999 181.2 53.4999 182.3 54.4999C183.3 55.4999 184.7 56.0999 186.2 56.0999C187.3 56.0999 188.2 55.7999 189 55.1999C189.7 54.7999 190.3 53.9999 190.5 52.9999Z" fill="white"/>
<path d="M220.9 55.6999V59.6999H210.8V55.6999H213.7V50.0999C213.7 48.4999 213.3 47.2999 212.5 46.4999C211.7 45.6999 210.6 45.1999 209.3 45.1999C207.6 45.1999 206.1 46.0999 204.7 47.7999V55.6999H207.5V59.6999H197.4V55.6999H200.2V36.8999H197.4V32.8999H204.6V43.3999C206.2 41.9999 208.1 41.3999 210.1 41.3999C212.4 41.3999 214.3 42.1999 215.8 43.6999C217.2 45.2999 218 47.2999 218 49.8999V55.7999H220.9V55.6999Z" fill="white"/>
</g>
<defs>
<clipPath id="clip0_8768_599">
<rect width="220.9" height="29.3" fill="white" transform="translate(0 31)"/>
</clipPath>
</defs>
</svg>
