<svg width="221" height="102" viewBox="0 0 221 102" fill="none" xmlns="http://www.w3.org/2000/svg">
<g clip-path="url(#clip0_8768_598)">
<path d="M154.895 75.1177H152.87V76.4537H154.895C155.236 76.4537 155.766 76.4537 155.766 75.7886C155.766 75.1236 155.236 75.1177 154.895 75.1177Z" fill="white"/>
<path d="M147.902 75.053C146.713 75.053 146.26 75.465 146.26 76.3655C146.26 77.2659 146.719 77.6897 147.902 77.6897C149.085 77.6897 149.544 77.2659 149.544 76.3655C149.544 75.465 149.091 75.053 147.902 75.053Z" fill="white"/>
<path d="M169.632 70.6741H114.037C113.56 70.6741 113.125 70.9389 112.907 71.3627L108.528 79.885C108.092 80.7325 108.71 81.7389 109.658 81.7389H165.306C165.788 81.7389 166.224 81.4682 166.442 81.0386L170.762 72.5163C171.191 71.6688 170.573 70.6682 169.626 70.6682L169.632 70.6741ZM122.235 78.5902H120.688L117.674 75.2707V78.5902H116.538V74.1642H118.08L121.105 77.4896V74.1642H122.241V78.5902H122.235ZM128.056 75.0706H124.513V75.9711H128.056V76.7951H124.513V77.6956H128.056V78.6019H123.377V74.176H128.056V75.0824V75.0706ZM134.442 75.1177H132.294V78.5902H131.158V75.1177H129.01V74.1642H134.448V75.1177H134.442ZM142.882 78.5902H141.31L140.01 75.2589L138.703 78.5902H137.138L135.396 74.1642H136.62L137.926 77.6426L139.309 74.1642H140.704L142.093 77.6485L143.394 74.1642H144.624L142.882 78.5902ZM147.902 78.6549C145.954 78.6549 145.118 77.8427 145.118 76.3713C145.118 74.8999 145.954 74.0995 147.902 74.0995C149.85 74.0995 150.686 74.9117 150.686 76.3713C150.686 77.8309 149.845 78.6549 147.902 78.6549ZM156.76 78.5902H155.418L154.706 77.4072H152.87V78.5902H151.734V74.1642H155.212C156.219 74.1642 156.907 74.7999 156.907 75.7886C156.907 76.5067 156.542 77.0423 155.948 77.2718L156.766 78.5843L156.76 78.5902ZM163.929 78.5902H162.357L160.409 76.748L159.05 77.7426V78.5902H157.914V74.1642H159.05V76.4596L162.204 74.1642H163.929L161.251 76.13L163.929 78.5902Z" fill="white"/>
<path d="M175.712 47.8327C175.158 47.8327 173.593 51.5347 169.649 54.1361C169.096 52.2527 168.319 50.6695 168.319 48.7273C168.319 45.2019 172.563 41.9883 173.057 41.5116C173.057 41.0937 170.756 39.2104 170.203 39.2104C169.532 39.2104 164.558 43.9482 164.558 47.3383C164.558 47.5502 164.606 47.7444 164.617 47.9504C163.334 49.1275 157.207 58.927 156.195 57.897C153.582 55.2838 168.755 26.5918 172.086 23.2605C172.639 22.7073 168.996 20.406 168.26 21.1417C167.113 22.2894 161.704 31.8829 157.461 41.3527C156.489 40.205 155.159 39.3516 153.517 39.3516C149.515 39.3516 146.125 45.1018 144.183 50.5518C141.87 53.7771 138.491 58.6621 137.744 57.9146C135.984 56.1549 141.746 44.5015 143.447 42.8123C143.941 42.3356 141.087 40.0167 140.234 40.6935C139.933 40.8701 139.621 41.2468 139.321 41.7235C138.35 40.5111 136.767 39.3634 135.078 39.3634C131.117 39.3634 127.715 45.0547 125.726 50.493C123.277 53.7065 119.228 58.7092 115.897 58.7092C115.479 58.7092 114.449 58.2325 114.449 56.4668C114.449 55.1367 114.69 53.7359 115.12 52.2822C115.673 52.5235 116.268 52.6412 117.062 52.6412C122.589 52.6412 125.92 46.3966 125.92 43.5421C125.92 41.5999 124.095 39.3575 122.153 39.3575C117.745 39.3575 113.49 45.3608 111.518 51.3817C109.217 54.5658 106.274 58.6386 105.709 57.9264C103.019 55.2367 118.18 26.6624 121.588 23.2605C122.2 22.6484 118.375 20.4649 117.704 21.1417C116.15 22.6955 107.245 39.0044 103.29 50.3458C100.977 53.5711 97.4632 58.6798 96.704 57.9205C94.9442 56.1607 100.706 44.5074 102.407 42.8182C102.901 42.3415 100.047 40.0226 99.1936 40.6994C98.8934 40.876 98.5815 41.2527 98.2813 41.7294C97.3102 40.517 95.727 39.3693 94.0378 39.3693C90.1122 39.3693 86.7162 44.9841 84.7328 50.3752C83.5675 51.882 81.9372 53.5417 79.7713 53.8124C79.7713 52.3646 79.6536 51.2581 79.3534 50.7814C84.8799 38.3982 91.6189 25.7148 94.0378 23.2958C94.5911 22.7426 90.9479 20.4414 90.2122 21.177C88.3465 23.0016 81.4133 35.9498 75.6337 49.4218C74.6803 49.3629 73.6621 49.4512 72.691 49.8573C72.691 49.8573 69.7953 52.753 70.99 53.3239C70.99 53.3239 71.7375 52.8766 73.6503 52.7118C71.5609 55.5781 69.3009 58.5503 68.8124 57.9264C66.1227 55.2544 81.3015 26.68 84.6916 23.2723C85.3037 22.6602 81.4781 20.4767 80.8071 21.1535C79.2533 22.7073 70.3485 39.0161 66.3934 50.3576C64.0804 53.5829 60.5667 58.6915 59.8075 57.9323C58.0477 56.1725 63.8097 44.5191 65.5106 42.83C66.005 42.3532 63.1505 40.0343 62.2971 40.7112C61.9969 40.8877 61.685 41.2644 61.3848 41.7412C60.4137 40.5287 58.8305 39.381 57.1413 39.381C50.9144 39.3634 46 53.63 46 58.5444C46 60.4278 47.8245 62.9821 49.0899 62.9821C50.7908 62.9821 53.6453 58.9211 56.0643 54.5422C55.7053 56.0666 55.511 57.3967 55.511 58.5444C55.511 60.4278 57.1531 62.9821 58.4244 62.9821C59.9017 62.9821 62.6502 59.2507 64.9044 55.5016C64.6513 56.6492 64.4865 57.7145 64.4865 58.5503C64.4865 60.6691 66.1874 62.988 67.3999 62.988C68.4887 62.988 70.2543 60.9692 72.0024 58.4326C69.1655 65.9896 67.1468 72.9346 67.1468 77.3134C67.1468 79.1968 69.3303 81.7511 70.3603 81.7511C74.8568 81.7511 78.9179 65.5423 79.6359 56.508C81.0838 56.3138 82.3845 55.4898 83.4733 54.4481C83.0672 56.0783 82.8435 57.538 82.8435 58.5679C82.8435 60.4513 84.6681 63.0056 85.9334 63.0056C87.6344 63.0056 90.4889 58.9446 92.9078 54.5658C92.5488 56.0901 92.3546 57.4203 92.3546 58.5679C92.3546 60.4513 93.9966 63.0056 95.2679 63.0056C96.7452 63.0056 99.4938 59.2742 101.748 55.5251C101.495 56.6728 101.33 57.7381 101.33 58.5738C101.33 60.6926 103.031 63.0115 104.243 63.0115C105.65 63.0115 108.216 59.6038 110.411 56.0371C110.353 56.6198 110.306 57.1848 110.306 57.7381C110.306 61.0693 113.16 63.0115 114.19 63.0115C117.833 63.0115 121.629 59.0211 124.301 55.1425C124.001 56.5021 123.836 57.6969 123.836 58.5915C123.836 60.4748 125.661 63.0292 126.926 63.0292C128.627 63.0292 131.482 58.9682 133.901 54.5893C133.542 56.1137 133.347 57.4438 133.347 58.5915C133.347 60.4748 134.989 63.0292 136.261 63.0292C137.726 63.0292 140.445 59.3684 142.682 55.6487C142.458 56.7964 142.323 57.8322 142.323 58.6091C142.323 60.4925 144.147 63.0468 145.354 63.0468C147.055 63.0468 150.092 58.8622 152.511 54.3068C152.093 56.0666 151.84 57.5203 151.84 58.6091C151.84 60.7279 153.541 63.0468 154.753 63.0468C157.307 63.0468 163.446 52.3234 164.594 48.9627C164.923 51.6053 165.936 53.73 166.389 55.7723C164.865 56.4433 162.999 56.5668 161.115 56.8023C160.874 56.9788 160.144 57.8322 160.144 58.5032C160.144 59.7745 163.234 63.1763 165.73 63.1763C167.613 63.1763 170.091 60.9339 170.091 57.5321C170.091 57.2319 170.032 56.92 170.032 56.6787C174.423 53.2592 176.842 47.8503 175.694 47.8503L175.712 47.8327ZM123.042 42.3238C123.713 42.9948 120.07 50.2693 115.944 50.2693H115.885C118.127 45.4137 122.071 41.3527 123.042 42.3238ZM50.5436 57.9794C50.4848 57.9794 50.4259 57.9205 50.3671 57.8617C50.3082 57.6851 50.2494 57.4438 50.2494 57.0083C50.2494 51.4817 55.8348 42.1473 58.2537 42.1473C59.0483 42.1473 59.6427 42.8771 60.3137 43.5951L59.0424 46.1494C56.6234 50.0339 52.2446 57.9794 50.5436 57.9794ZM71.2902 76.666C70.99 76.3658 70.8723 75.8714 70.8723 75.0828C70.8723 71.6927 73.6032 64.0415 77.1758 55.6664C76.2046 63.8649 72.8146 78.1786 71.2902 76.666ZM87.4343 57.9794C87.3754 57.9794 87.3166 57.9205 87.2577 57.8617C87.1988 57.6851 87.14 57.4438 87.14 57.0083C87.14 51.4817 92.7254 42.1473 95.1443 42.1473C95.9389 42.1473 96.5333 42.8771 97.2043 43.5951L95.933 46.1494C93.4964 50.0339 89.1352 57.9794 87.4343 57.9794ZM128.451 57.9794C128.392 57.9794 128.333 57.9205 128.274 57.8617C128.215 57.6851 128.156 57.4438 128.156 57.0083C128.156 51.4817 133.742 42.1473 136.161 42.1473C136.955 42.1473 137.55 42.8771 138.221 43.5951L136.949 46.1494C134.513 50.0339 130.152 57.9794 128.451 57.9794ZM146.961 57.9794C146.902 57.9794 146.661 57.9205 146.661 57.0083C146.661 51.4817 152.069 42.1473 154.665 42.1473C155.395 42.1473 155.995 42.7594 156.548 43.4185L155.401 46.273C152.905 50.2163 148.591 57.9853 146.961 57.9853V57.9794ZM165.406 59.8569C164.853 59.8569 164.258 59.6156 163.646 59.0623C164.794 59.0623 165.765 58.8858 166.795 58.4502C166.736 59.1212 166.436 59.8569 165.406 59.8569Z" fill="white"/>
</g>
<defs>
<clipPath id="clip0_8768_598">
<rect width="130" height="60.7389" fill="white" transform="translate(46 21)"/>
</clipPath>
</defs>
</svg>
