<svg width="24" height="24" viewBox="0 0 24 24" fill="none" xmlns="http://www.w3.org/2000/svg">
<path d="M0.423528 11.5765C0.211763 11.7882 0.211763 12.2118 0.423528 12.4235L11.5765 23.5765C11.7882 23.7882 12.2118 23.7882 12.4235 23.5765C12.6353 23.3647 12.6353 22.9412 12.4235 22.7294L2.25882 12.5647L23.1529 12.5647C23.4353 12.5647 23.7176 12.2824 23.7176 12C23.7176 11.8588 23.6471 11.6471 23.5765 11.5765C23.5059 11.5059 23.2941 11.4353 23.1529 11.4353L2.32941 11.3647L12.4235 1.27059C12.6353 1.05882 12.6353 0.635293 12.4235 0.423528C12.2118 0.211763 11.7882 0.211763 11.5765 0.423528L0.423528 11.5765Z" fill="white"/>
</svg>
