<svg width="221" height="102" viewBox="0 0 221 102" fill="none" xmlns="http://www.w3.org/2000/svg">
<g clip-path="url(#clip0_8768_601)">
<path d="M71 28.3093H89.1393C98.2936 28.3093 103.379 33.2352 103.379 40.3027C103.379 43.3486 101.902 46.7991 98.003 48.5838V48.8218C101.902 50.2258 104.058 54.6519 104.058 58.0786C104.058 65.6934 97.8577 70.6668 90.6165 70.6668H71V28.3093ZM87.8315 45.1571C91.8032 45.1571 93.2805 43.0393 93.2805 40.7072C93.2805 38.399 91.8032 36.6856 87.8315 36.6856H80.5419V45.1333H87.8315V45.1571ZM88.6307 62.2429C92.6509 62.2429 94.2735 60.0537 94.2735 57.6264C94.2735 55.2468 92.6751 52.891 88.6307 52.891H80.5419V62.2667H88.6307V62.2429Z" fill="white"/>
<path d="M106.891 28.3093H116.433V70.643H106.891V28.3093Z" fill="white"/>
<path d="M119.896 44.4909C119.896 35.7338 125.345 28 136.558 28C144.719 28 150.483 32.3071 152.59 38.7559L143.557 41.9209C142.879 38.9939 140.409 36.7571 136.51 36.7571C131.739 36.7571 129.511 40.1599 129.511 43.6342V55.1278C129.511 58.7687 131.739 62.3143 136.558 62.3143C140.651 62.3143 143.993 59.0304 143.993 55.1992V54.8899H135.178V47.1085H153.365V55.5562C153.365 64.4322 145.809 71 136.534 71C125.321 71 119.872 64.1229 119.872 54.4615V44.4909H119.896Z" fill="white"/>
<path d="M161.503 70.6431C164.539 70.6431 167 68.2247 167 65.2414C167 62.2581 164.539 59.8396 161.503 59.8396C158.466 59.8396 156.005 62.2581 156.005 65.2414C156.005 68.2247 158.466 70.6431 161.503 70.6431Z" fill="white"/>
<path d="M71 28.3093H89.1393C98.2936 28.3093 103.379 33.2352 103.379 40.3027C103.379 43.3486 101.902 46.7991 98.003 48.5838V48.8218C101.902 50.2258 104.058 54.6519 104.058 58.0786C104.058 65.6934 97.8577 70.6668 90.6165 70.6668H71V28.3093ZM87.8315 45.1571C91.8032 45.1571 93.2805 43.0393 93.2805 40.7072C93.2805 38.399 91.8032 36.6856 87.8315 36.6856H80.5419V45.1333H87.8315V45.1571ZM88.6307 62.2429C92.6509 62.2429 94.2735 60.0537 94.2735 57.6264C94.2735 55.2468 92.6751 52.891 88.6307 52.891H80.5419V62.2667H88.6307V62.2429Z" fill="white"/>
<path d="M106.891 28.3093H116.433V70.643H106.891V28.3093Z" fill="white"/>
<path d="M119.896 44.4909C119.896 35.7338 125.345 28 136.558 28C144.719 28 150.483 32.3071 152.59 38.7559L143.557 41.9209C142.879 38.9939 140.409 36.7571 136.51 36.7571C131.739 36.7571 129.511 40.1599 129.511 43.6342V55.1278C129.511 58.7687 131.739 62.3143 136.558 62.3143C140.651 62.3143 143.993 59.0304 143.993 55.1992V54.8899H135.178V47.1085H153.365V55.5562C153.365 64.4322 145.809 71 136.534 71C125.321 71 119.872 64.1229 119.872 54.4615V44.4909H119.896Z" fill="white"/>
<path d="M161.503 70.6431C164.539 70.6431 167 68.2247 167 65.2414C167 62.2581 164.539 59.8396 161.503 59.8396C158.466 59.8396 156.005 62.2581 156.005 65.2414C156.005 68.2247 158.466 70.6431 161.503 70.6431Z" fill="white"/>
</g>
<defs>
<clipPath id="clip0_8768_601">
<rect width="96" height="43" fill="white" transform="translate(71 28)"/>
</clipPath>
</defs>
</svg>
