<?xml version="1.0" encoding="utf-8"?><svg viewBox="0 0 24 24" xmlns="http://www.w3.org/2000/svg" xmlns:xlink="http://www.w3.org/1999/xlink"><style>:root>svg{display:none}:root>svg:target{display:block}</style><svg viewBox="0 0 24 24" id="in" xmlns="http://www.w3.org/2000/svg"><g clip-path="url(#aa)"><path d="M12 0C5.374 0 0 5.374 0 12s5.374 12 12 12 12-5.374 12-12S18.626 0 12 0ZM8.513 18.14H5.59V9.349h2.923v8.793ZM7.052 8.148h-.02c-.98 0-1.614-.675-1.614-1.518 0-.863.653-1.52 1.653-1.52s1.615.657 1.634 1.52c0 .843-.634 1.518-1.653 1.518Zm11.999 9.994h-2.922v-4.704c0-1.182-.423-1.989-1.48-1.989-.808 0-1.289.544-1.5 1.07-.077.187-.096.45-.096.712v4.91H10.13s.039-7.967 0-8.792h2.923v1.245c.388-.6 1.083-1.451 2.633-1.451 1.923 0 3.365 1.256 3.365 3.957v5.042Z"/></g><defs><clipPath id="aa"><path d="M0 0h24v24H0z"/></clipPath></defs></svg><svg viewBox="0 0 24 24" id="inst" xmlns="http://www.w3.org/2000/svg"><g clip-path="url(#ba)"><path d="M14.297 12A2.295 2.295 0 0 1 12 14.297 2.295 2.295 0 0 1 9.703 12 2.295 2.295 0 0 1 12 9.703 2.295 2.295 0 0 1 14.297 12Z"/><path d="M17.372 7.936a2.128 2.128 0 0 0-.516-.792 2.128 2.128 0 0 0-.792-.516c-.244-.094-.61-.206-1.28-.239-.726-.033-.947-.042-2.784-.042-1.842 0-2.058.005-2.784.042-.67.033-1.036.145-1.28.24-.3.112-.572.285-.792.515-.23.22-.403.492-.516.792-.094.244-.206.61-.239 1.28-.033.726-.042.942-.042 2.784 0 1.838.01 2.058.042 2.784.033.67.14 1.036.24 1.28.112.3.285.572.515.792.22.23.492.403.792.516.244.094.61.206 1.28.239.726.033.942.042 2.784.042 1.842 0 2.058-.005 2.784-.042.67-.033 1.036-.14 1.28-.24a2.273 2.273 0 0 0 1.308-1.307c.094-.244.206-.61.239-1.28.033-.726.042-.947.042-2.784 0-1.842-.005-2.058-.042-2.784-.033-.67-.145-1.036-.24-1.28ZM12 15.539a3.539 3.539 0 1 1 0-7.078 3.539 3.539 0 0 1 0 7.078Zm3.68-6.389a.826.826 0 0 1 0-1.65.826.826 0 0 1 0 1.65Z"/><path d="M12 0C5.372 0 0 5.372 0 12s5.372 12 12 12 12-5.372 12-12S18.628 0 12 0Zm6.848 14.84c-.032.732-.15 1.233-.318 1.674a3.514 3.514 0 0 1-2.016 2.016c-.436.168-.937.286-1.673.318-.736.033-.97.043-2.841.043-1.87 0-2.105-.01-2.84-.043-.732-.032-1.233-.15-1.674-.318a3.355 3.355 0 0 1-1.219-.797 3.355 3.355 0 0 1-.797-1.219c-.168-.436-.286-.937-.318-1.673-.033-.736-.043-.97-.043-2.841 0-1.87.01-2.105.043-2.84.032-.732.15-1.233.318-1.674.174-.46.446-.877.797-1.219.342-.351.76-.623 1.219-.797.44-.168.937-.286 1.673-.318.736-.033.97-.043 2.841-.043 1.87 0 2.105.01 2.84.043.732.032 1.233.15 1.674.318.46.174.877.446 1.219.797.351.342.623.76.797 1.219.168.44.286.937.318 1.673.033.736.043.97.043 2.841 0 1.87-.01 2.105-.043 2.84Z"/></g><defs><clipPath id="ba"><path d="M0 0h24v24H0z"/></clipPath></defs></svg></svg>